<svg xmlns="http://www.w3.org/2000/svg" xmlns:xlink="http://www.w3.org/1999/xlink" width="50" zoomAndPan="magnify" viewBox="0 0 37.5 37.499999" height="50" preserveAspectRatio="xMidYMid meet" version="1.0"><defs><clipPath id="1c716da512"><path d="M 1.089844 2 L 34 2 L 34 37 L 1.089844 37 Z M 1.089844 2 " clip-rule="nonzero"/></clipPath></defs><g clip-path="url(#1c716da512)"><path fill="#ba2c27" d="M 32.945312 23.507812 L 22.570312 19.457031 L 33.035156 15.402344 C 33.578125 15.222656 33.9375 14.589844 33.847656 14.050781 C 33.667969 12.878906 33.125 11.796875 32.492188 10.804688 C 31.953125 9.726562 31.230469 8.824219 30.328125 8.011719 C 29.878906 7.652344 29.246094 7.652344 28.796875 8.011719 L 20.046875 15.039062 L 21.851562 3.960938 C 22.03125 3.328125 21.667969 2.789062 21.128906 2.609375 C 20.046875 2.15625 18.78125 1.976562 17.609375 2.066406 C 16.4375 1.976562 15.175781 2.15625 14.09375 2.609375 C 13.550781 2.789062 13.191406 3.417969 13.371094 3.960938 L 15.175781 15.039062 L 6.425781 8.011719 C 5.972656 7.5625 5.34375 7.5625 4.890625 8.011719 C 3.988281 8.734375 3.265625 9.726562 2.726562 10.804688 C 2.003906 11.796875 1.554688 12.878906 1.28125 14.050781 C 1.191406 14.679688 1.554688 15.222656 2.09375 15.402344 L 12.378906 19.457031 L 1.914062 23.507812 C 1.371094 23.6875 1.011719 24.320312 1.101562 24.859375 C 1.28125 26.03125 1.734375 27.113281 2.457031 28.105469 C 2.996094 29.183594 3.71875 30.085938 4.621094 30.898438 C 5.070312 31.257812 5.703125 31.257812 6.152344 30.898438 L 14.902344 23.871094 L 13.101562 34.949219 C 12.917969 35.582031 13.28125 36.121094 13.820312 36.390625 C 14.992188 36.753906 16.167969 36.933594 17.339844 36.84375 C 18.511719 36.933594 19.773438 36.753906 20.859375 36.390625 C 21.398438 36.210938 21.757812 35.582031 21.578125 34.949219 L 19.773438 23.871094 L 28.523438 30.898438 C 28.976562 31.257812 29.609375 31.257812 30.148438 30.898438 C 31.050781 30.175781 31.773438 29.273438 32.3125 28.195312 C 33.035156 27.203125 33.488281 26.121094 33.757812 24.949219 C 33.847656 24.230469 33.578125 23.6875 32.945312 23.507812 Z M 32.945312 23.507812 " fill-opacity="1" fill-rule="nonzero"/></g></svg>